# xmcd CD database file
#
# Track frame offsets:
#	150
#	22295
#	44035
#	71257
#	91103
#	110083
#	126429
#	150648
#	164955
#	180217
#	199225
#	213658
#
# Disc length: 3292 seconds
#
# Revision: 4
# Processed by: cddbd v1.5.2PL0 Copyright (c) Steve Scherf et al.
# Submitted via: CDex 1.70beta2
#
DISCID=b40cda0c
DTITLE=Elis Regina - MPB no JT
DYEAR=1997
DGENRE=MPB
TTITLE0=Como Nossos Pais
TTITLE1=Travessia
TTITLE2=Morro Velho
TTITLE3=Romaria
TTITLE4=Colagem
TTITLE5=Madalena
TTITLE6=Cadeira Vazia
TTITLE7=Vida de Bailarina
TTITLE8=Triste
TTITLE9=Dois pra Lá, Dois pra Cá
TTITLE10=Mestre-Sala dos Mares
TTITLE11=Cartomante
EXTD=YEAR: 1997
EXTT0=
EXTT1=
EXTT2=
EXTT3=
EXTT4=
EXTT5=
EXTT6=
EXTT7=
EXTT8=
EXTT9=
EXTT10=
EXTT11=
PLAYORDER=
